<svg id="svg" version="1.1" xmlns="http://www.w3.org/2000/svg" xmlns:xlink="http://www.w3.org/1999/xlink" width="400" height="400" viewBox="0, 0, 400,400"><g id="svgg"><path id="path0" d="M0.000 0.370 C 0.000 0.787,0.435 1.022,0.887 0.849 C 1.154 0.746,1.151 0.691,0.857 0.366 C 0.430 -0.105,0.000 -0.104,0.000 0.370 M3.418 0.283 L 2.637 0.536 3.252 0.768 C 4.421 1.210,4.472 2.928,3.334 3.509 C 2.911 3.724,2.516 3.981,2.456 4.078 C 2.287 4.352,0.983 3.988,0.675 3.582 C 0.501 3.352,0.401 3.314,0.397 3.478 C 0.393 3.619,0.303 3.680,0.195 3.613 C 0.065 3.533,0.000 69.627,0.000 201.746 L 0.000 400.000 200.000 400.000 L 400.000 400.000 400.000 200.000 L 400.000 0.000 202.100 0.015 C 40.690 0.027,4.055 0.077,3.418 0.283 M130.762 92.785 C 136.462 93.076,141.160 93.620,146.973 94.662 C 148.477 94.932,149.883 95.181,150.098 95.217 C 151.301 95.415,154.588 96.143,155.811 96.482 C 156.589 96.698,157.820 97.037,158.545 97.235 C 159.841 97.589,161.969 98.226,163.645 98.761 C 165.507 99.356,170.514 101.268,172.266 102.054 C 176.092 103.768,177.254 104.303,177.539 104.481 C 177.700 104.581,178.491 104.981,179.297 105.370 C 184.773 108.011,193.970 114.120,198.623 118.206 C 199.901 119.328,199.846 119.323,200.887 118.408 C 202.482 117.005,203.440 116.264,206.934 113.734 C 210.231 111.346,214.322 108.594,214.576 108.594 C 214.638 108.594,215.774 107.979,217.101 107.228 C 220.199 105.474,225.393 102.975,228.294 101.844 C 229.544 101.356,230.962 100.795,231.445 100.597 C 232.525 100.155,238.852 98.028,240.723 97.478 C 243.826 96.565,251.241 94.921,253.613 94.620 C 254.150 94.551,254.897 94.421,255.273 94.329 C 255.901 94.176,260.236 93.633,264.551 93.165 C 272.393 92.317,282.382 92.318,291.406 93.170 C 297.660 93.760,300.146 94.116,308.471 95.609 C 313.257 96.468,315.350 97.810,316.715 100.897 L 317.196 101.983 317.206 120.962 C 317.212 131.401,317.205 150.488,317.190 163.379 L 317.163 186.816 318.257 187.184 C 318.858 187.385,319.413 187.488,319.490 187.411 C 319.566 187.335,319.642 170.729,319.657 150.509 C 319.688 110.514,319.623 112.970,320.706 111.230 C 324.722 104.781,335.113 106.717,336.505 114.174 C 336.864 116.099,336.631 284.732,336.267 285.696 C 334.405 290.631,329.521 292.591,323.828 290.687 C 319.832 289.351,315.356 288.084,312.121 287.375 C 310.450 287.008,308.423 286.540,307.617 286.335 C 305.913 285.900,301.210 285.044,299.512 284.859 C 298.867 284.788,298.032 284.656,297.656 284.564 C 287.395 282.058,263.124 283.028,250.488 286.448 C 249.521 286.710,247.443 287.272,245.869 287.698 C 239.645 289.381,235.049 291.060,227.538 294.392 C 222.765 296.510,213.432 301.625,208.605 304.771 C 201.556 309.363,198.230 309.376,191.282 304.835 C 188.464 302.993,187.738 302.542,186.328 301.756 C 185.630 301.367,183.564 300.211,181.738 299.188 C 167.334 291.119,156.382 287.281,139.727 284.468 C 127.818 282.457,110.546 282.862,98.047 285.445 C 97.349 285.589,96.118 285.813,95.313 285.942 C 94.507 286.071,92.881 286.391,91.699 286.654 C 90.518 286.917,88.760 287.303,87.793 287.512 C 85.458 288.018,80.157 289.489,77.246 290.438 C 70.783 292.547,66.392 291.176,64.078 286.328 L 63.379 284.863 63.345 200.195 C 63.325 150.899,63.384 115.043,63.486 114.368 C 64.660 106.615,75.912 104.701,79.458 111.652 C 80.287 113.276,80.273 112.607,80.280 150.850 C 80.287 181.432,80.332 187.695,80.549 187.695 C 80.692 187.695,81.282 187.487,81.859 187.232 L 82.908 186.769 82.936 145.233 C 82.951 122.389,83.026 103.113,83.103 102.397 C 83.485 98.829,85.922 96.727,90.625 95.909 C 104.448 93.503,109.442 92.910,118.457 92.603 C 123.031 92.447,124.587 92.470,130.762 92.785 M117.285 108.707 C 116.748 108.747,114.419 108.917,112.109 109.085 C 107.076 109.452,99.645 110.518,99.155 110.944 C 98.745 111.301,99.001 182.320,99.413 182.386 C 99.626 182.421,100.482 182.314,101.316 182.150 C 102.150 181.985,104.019 181.716,105.469 181.551 C 106.919 181.386,109.179 181.124,110.490 180.968 C 123.492 179.422,141.581 180.733,153.809 184.107 C 163.145 186.683,173.022 190.654,179.102 194.275 C 184.259 197.347,187.592 199.517,190.198 201.499 C 191.092 202.179,191.859 202.734,191.903 202.734 C 191.948 202.734,191.982 187.091,191.980 167.971 L 191.975 133.208 190.372 131.877 C 187.910 129.831,184.406 127.107,183.105 126.226 C 180.583 124.519,177.965 122.868,176.660 122.160 C 175.908 121.752,174.982 121.224,174.602 120.987 C 173.112 120.056,171.621 119.362,165.723 116.853 C 156.292 112.842,144.837 110.144,132.312 108.984 C 130.110 108.781,119.058 108.577,117.285 108.707 M271.289 108.725 C 269.926 108.768,265.609 109.112,264.453 109.270 C 264.292 109.292,263.677 109.375,263.086 109.455 C 255.444 110.489,251.155 111.328,246.484 112.703 C 245.356 113.036,243.862 113.473,243.164 113.676 C 241.452 114.173,238.214 115.321,236.621 115.997 C 234.723 116.802,233.473 117.316,232.227 117.806 C 225.512 120.444,213.814 127.823,208.954 132.484 L 208.045 133.356 208.021 163.700 C 208.007 180.388,207.951 194.966,207.895 196.094 C 207.773 198.562,207.983 202.539,208.236 202.539 C 208.336 202.539,209.270 201.898,210.312 201.115 C 221.064 193.037,233.434 187.375,248.535 183.621 C 254.326 182.181,259.623 181.334,267.285 180.624 C 270.770 180.302,283.476 180.291,286.426 180.609 C 292.630 181.278,296.137 181.744,299.205 182.308 C 300.111 182.475,300.902 182.561,300.963 182.500 C 301.099 182.364,300.993 111.562,300.856 111.091 C 300.800 110.897,300.495 110.713,300.135 110.655 C 289.230 108.895,281.772 108.396,271.289 108.725 M270.215 197.558 C 246.696 199.082,226.338 207.682,211.255 222.465 L 208.350 225.312 208.267 246.543 C 208.204 262.700,208.238 267.773,208.413 267.773 C 208.539 267.773,209.180 267.390,209.838 266.921 C 212.610 264.948,220.346 260.847,225.000 258.885 C 226.450 258.273,228.032 257.599,228.516 257.386 C 230.383 256.566,236.235 254.530,240.368 253.263 C 243.660 252.254,250.579 250.757,256.738 249.722 C 266.323 248.111,277.465 247.740,289.369 248.635 C 292.478 248.868,292.375 248.858,297.227 249.429 C 299.193 249.660,300.838 249.813,300.883 249.768 C 301.081 249.570,301.088 200.174,300.890 200.020 C 300.206 199.489,288.549 197.840,283.594 197.574 C 278.971 197.325,273.899 197.320,270.215 197.558 M115.625 197.670 C 111.766 197.972,106.121 198.717,102.441 199.409 C 101.904 199.510,100.958 199.680,100.339 199.786 C 99.720 199.893,99.136 200.028,99.042 200.086 C 98.945 200.146,98.909 209.902,98.959 222.606 C 99.007 234.933,99.041 246.140,99.035 247.510 L 99.023 250.000 99.973 250.000 C 100.496 250.000,101.397 249.910,101.975 249.800 C 108.155 248.627,127.889 247.623,131.067 248.321 C 131.329 248.378,133.037 248.519,134.863 248.633 C 138.418 248.854,138.543 248.870,144.922 249.920 C 156.839 251.880,167.222 255.189,179.297 260.873 C 182.178 262.230,189.346 266.308,190.798 267.418 C 191.054 267.613,191.362 267.773,191.481 267.773 C 191.641 267.773,191.684 262.063,191.643 246.548 L 191.587 225.323 189.726 223.313 C 188.702 222.207,186.794 220.421,185.485 219.344 C 184.176 218.267,182.402 216.797,181.543 216.077 C 177.687 212.849,169.022 207.843,163.086 205.414 C 162.173 205.041,160.239 204.239,158.789 203.633 C 152.766 201.115,144.405 199.122,134.863 197.931 C 131.878 197.558,119.241 197.387,115.625 197.670 M81.526 205.545 L 80.532 206.007 80.403 209.107 C 80.184 214.399,80.248 271.836,80.473 271.976 C 80.584 272.044,81.353 271.875,82.182 271.600 C 86.996 270.007,96.533 268.203,107.031 266.900 C 115.386 265.863,127.287 265.864,136.426 266.903 C 137.822 267.062,139.800 267.286,140.820 267.400 C 141.841 267.515,143.071 267.691,143.555 267.791 C 144.038 267.891,145.356 268.142,146.484 268.349 C 150.672 269.118,151.928 269.383,154.980 270.144 C 156.699 270.573,159.028 271.219,160.156 271.580 C 161.284 271.942,163.306 272.590,164.648 273.021 C 167.811 274.036,170.988 275.187,172.949 276.028 C 174.933 276.879,176.758 277.559,176.758 277.447 C 176.758 277.245,173.998 275.753,172.580 275.188 C 171.732 274.850,170.501 274.285,169.845 273.932 C 168.221 273.058,162.589 270.841,159.375 269.811 C 155.208 268.475,149.260 266.996,143.750 265.925 C 134.881 264.200,117.588 263.575,108.691 264.658 C 107.832 264.762,106.646 264.888,106.055 264.937 C 103.798 265.125,98.088 266.025,94.141 266.815 C 89.058 267.832,88.975 267.841,87.914 267.488 C 86.000 266.852,84.172 265.327,83.352 263.680 L 82.911 262.793 82.924 235.645 C 82.937 208.674,82.905 205.076,82.652 205.080 C 82.579 205.081,82.072 205.290,81.526 205.545 M317.177 207.059 C 317.171 208.172,317.149 221.167,317.128 235.938 L 317.090 262.793 316.547 263.899 C 314.854 267.344,312.496 268.015,306.221 266.833 C 302.145 266.065,299.030 265.542,297.266 265.329 C 296.782 265.270,296.167 265.179,295.897 265.126 C 286.434 263.258,265.375 263.991,253.320 266.608 C 252.837 266.713,251.958 266.886,251.367 266.993 C 249.541 267.323,242.957 269.148,239.258 270.348 C 236.598 271.211,230.155 273.760,228.997 274.407 C 228.455 274.709,227.245 275.274,226.306 275.663 C 223.939 276.643,221.129 278.225,221.354 278.451 C 221.450 278.546,222.762 278.020,226.074 276.557 C 235.287 272.486,248.051 268.994,259.570 267.393 C 266.975 266.364,275.087 265.889,281.445 266.112 C 286.402 266.285,293.601 266.753,295.020 266.994 C 295.664 267.104,297.466 267.363,299.023 267.572 C 305.388 268.422,314.730 270.397,318.461 271.681 C 319.061 271.887,319.571 271.969,319.633 271.868 C 319.774 271.641,319.730 206.894,319.590 206.292 C 319.490 205.865,318.739 205.425,317.638 205.149 C 317.190 205.036,317.187 205.045,317.177 207.059 " stroke="none" fill="#e4f8ee" fill-rule="evenodd"></path><path id="path1" d="M69.922 107.930 C 66.856 108.751,64.355 111.464,63.882 114.482 C 63.546 116.629,63.620 283.510,63.958 284.802 C 64.752 287.843,67.092 290.061,70.402 290.912 C 72.393 291.423,73.038 291.335,77.441 289.942 C 100.908 282.520,124.819 280.856,145.996 285.173 C 152.760 286.552,158.251 288.167,165.761 290.989 C 172.170 293.396,183.981 299.571,191.485 304.437 C 198.353 308.891,201.249 308.964,207.641 304.848 C 217.526 298.483,229.595 292.517,238.914 289.389 C 243.425 287.875,251.416 285.643,254.004 285.175 C 266.231 282.960,272.996 282.431,283.984 282.827 C 289.314 283.020,292.667 283.359,300.098 284.460 C 306.306 285.380,316.784 287.943,323.535 290.195 C 329.558 292.203,334.161 290.393,335.850 285.352 C 336.214 284.264,336.479 120.526,336.125 115.289 C 335.574 107.150,324.770 104.783,320.883 111.951 L 320.215 113.184 320.164 150.544 C 320.121 182.524,320.073 187.920,319.837 188.010 C 319.685 188.069,318.434 187.749,317.056 187.299 C 312.553 185.831,310.894 185.346,307.018 184.369 C 277.592 176.944,244.845 181.028,220.117 195.206 C 213.339 199.093,208.480 202.757,201.794 209.024 C 199.803 210.890,200.161 210.926,197.786 208.614 C 183.279 194.487,161.622 184.532,139.355 181.756 C 120.020 179.346,97.126 181.725,81.855 187.732 C 81.060 188.045,80.292 188.255,80.148 188.200 C 79.931 188.117,79.878 181.746,79.836 150.739 L 79.785 113.379 79.262 112.262 C 77.634 108.790,73.638 106.936,69.922 107.930 M128.927 197.068 C 147.655 198.135,163.352 203.253,178.223 213.142 C 181.848 215.553,187.349 220.154,190.283 223.230 L 191.992 225.021 192.013 227.306 C 192.083 234.962,192.097 285.705,192.029 285.986 C 191.912 286.472,191.772 286.430,190.289 285.473 C 175.827 276.129,156.407 269.550,136.914 267.388 C 127.739 266.370,123.988 266.279,113.379 266.813 C 104.494 267.260,91.430 269.404,82.967 271.805 C 81.602 272.192,80.347 272.456,80.180 272.392 C 79.688 272.203,79.740 206.467,80.232 205.868 C 80.814 205.160,89.522 201.867,92.383 201.273 C 92.759 201.195,93.982 200.877,95.100 200.566 C 100.504 199.065,108.837 197.733,115.723 197.270 C 121.659 196.871,124.665 196.825,128.927 197.068 M286.523 197.368 C 298.475 198.567,307.052 200.511,316.309 204.122 C 317.920 204.751,319.436 205.404,319.678 205.573 L 320.117 205.882 320.117 239.160 C 320.117 257.787,320.042 272.484,319.947 272.543 C 319.854 272.600,319.085 272.395,318.238 272.086 C 314.148 270.595,302.391 268.323,292.871 267.185 C 271.837 264.670,246.251 268.403,226.370 276.889 C 219.839 279.676,211.431 284.071,209.007 285.964 C 208.751 286.164,208.375 286.328,208.171 286.328 C 207.782 286.328,207.625 226.298,208.012 225.293 C 208.588 223.796,216.765 216.697,222.559 212.662 C 239.113 201.134,264.215 195.132,286.523 197.368 " stroke="none" fill="#0fbb54" fill-rule="evenodd"></path><path id="path2" d="M70.313 107.551 C 67.229 108.166,64.174 111.249,63.678 114.245 C 63.528 115.157,63.482 139.996,63.520 200.195 L 63.574 284.863 64.200 286.183 C 66.319 290.657,70.740 292.307,76.074 290.615 C 82.816 288.476,89.859 286.714,96.289 285.556 C 98.169 285.218,100.103 284.859,100.586 284.758 C 106.859 283.450,120.374 282.704,129.041 283.187 C 150.335 284.374,170.993 291.454,190.929 304.398 C 198.234 309.140,201.562 309.247,208.008 304.946 C 221.424 295.993,240.855 287.803,254.492 285.353 C 255.728 285.131,257.441 284.816,258.301 284.652 C 259.923 284.343,264.420 283.736,267.969 283.346 C 271.347 282.976,286.934 283.055,290.625 283.461 C 298.915 284.374,304.403 285.341,313.086 287.419 C 315.480 287.992,321.430 289.716,324.512 290.730 C 330.063 292.557,335.331 289.733,336.327 284.397 C 336.599 282.941,336.599 115.691,336.327 114.236 C 334.790 106.000,323.252 105.043,320.179 112.897 C 319.859 113.716,319.837 116.020,319.831 150.716 C 319.827 171.037,319.775 187.712,319.714 187.773 C 319.654 187.833,317.896 187.308,315.808 186.605 C 297.720 180.518,274.399 178.809,256.152 182.234 C 254.971 182.456,253.564 182.715,253.027 182.809 C 251.734 183.037,247.346 184.068,245.508 184.576 C 233.270 187.957,224.195 192.016,214.258 198.552 C 210.839 200.800,207.153 203.701,203.764 206.810 C 202.500 207.970,201.160 209.198,200.787 209.538 C 200.117 210.148,199.609 210.334,199.609 209.969 C 199.609 209.695,194.533 205.066,192.480 203.468 C 168.940 185.138,139.547 177.572,107.324 181.548 C 96.428 182.893,87.231 185.067,81.016 187.769 C 80.619 187.941,80.250 188.011,80.196 187.923 C 80.142 187.836,80.109 171.203,80.123 150.962 C 80.151 109.848,80.261 113.081,78.764 110.938 C 76.972 108.374,73.388 106.937,70.313 107.551 M73.919 107.917 C 76.335 108.546,78.250 110.104,79.262 112.262 L 79.785 113.379 79.836 150.739 C 79.878 181.746,79.931 188.117,80.148 188.200 C 80.292 188.255,81.060 188.045,81.855 187.732 C 97.126 181.725,120.020 179.346,139.355 181.756 C 161.622 184.532,183.279 194.487,197.786 208.614 C 200.161 210.926,199.803 210.890,201.794 209.024 C 226.914 185.478,261.577 176.212,299.815 182.820 C 304.919 183.702,310.357 185.115,317.056 187.299 C 318.434 187.749,319.685 188.069,319.837 188.010 C 320.073 187.920,320.121 182.524,320.164 150.544 L 320.215 113.184 320.883 111.951 C 324.770 104.783,335.574 107.150,336.125 115.289 C 336.479 120.526,336.214 284.264,335.850 285.352 C 334.161 290.393,329.558 292.203,323.535 290.195 C 316.784 287.943,306.306 285.380,300.098 284.460 C 292.667 283.359,289.314 283.020,283.984 282.827 C 272.996 282.431,266.231 282.960,254.004 285.175 C 251.416 285.643,243.425 287.875,238.914 289.389 C 229.595 292.517,217.526 298.483,207.641 304.848 C 201.249 308.964,198.353 308.891,191.485 304.437 C 185.617 300.632,176.623 295.738,170.253 292.885 C 162.854 289.571,154.428 286.892,145.996 285.173 C 124.819 280.856,100.908 282.520,77.441 289.942 C 73.038 291.335,72.393 291.423,70.402 290.912 C 67.092 290.061,64.752 287.843,63.958 284.802 C 63.620 283.510,63.546 116.629,63.882 114.482 C 64.599 109.903,69.425 106.746,73.919 107.917 M120.117 197.015 C 111.770 197.311,101.646 198.748,95.100 200.566 C 93.982 200.877,92.759 201.195,92.383 201.273 C 89.522 201.867,80.814 205.160,80.232 205.868 C 79.740 206.467,79.688 272.203,80.180 272.392 C 80.347 272.456,81.602 272.192,82.967 271.805 C 91.430 269.404,104.494 267.260,113.379 266.813 C 123.988 266.279,127.739 266.370,136.914 267.388 C 156.407 269.550,175.827 276.129,190.289 285.473 C 191.772 286.430,191.912 286.472,192.029 285.986 C 192.097 285.705,192.083 234.962,192.013 227.306 L 191.992 225.021 190.283 223.230 C 187.349 220.154,181.848 215.553,178.223 213.142 C 163.352 203.253,147.655 198.135,128.927 197.068 C 125.682 196.883,124.116 196.874,120.117 197.015 M270.703 197.076 C 246.926 198.535,225.920 207.386,210.771 222.330 C 209.336 223.745,208.095 225.078,208.012 225.293 C 207.625 226.298,207.782 286.328,208.171 286.328 C 208.375 286.328,208.751 286.164,209.007 285.964 C 210.263 284.983,215.928 281.766,219.236 280.156 C 240.893 269.614,262.929 265.334,287.988 266.803 C 296.851 267.323,312.828 270.113,318.238 272.086 C 319.085 272.395,319.854 272.600,319.947 272.543 C 320.042 272.484,320.117 257.787,320.117 239.160 L 320.117 205.882 319.678 205.573 C 319.059 205.139,313.896 203.148,310.645 202.089 C 299.045 198.312,283.123 196.313,270.703 197.076 M288.770 197.843 C 295.198 198.560,298.248 199.113,305.107 200.802 C 310.091 202.030,319.291 205.324,319.637 206.004 C 319.923 206.567,320.016 271.989,319.731 272.165 C 319.618 272.235,319.039 272.110,318.444 271.887 C 316.390 271.118,309.572 269.516,304.688 268.654 C 287.014 265.533,270.563 265.439,254.501 268.367 C 249.124 269.347,246.539 269.958,239.941 271.807 C 229.961 274.604,216.325 280.666,209.183 285.479 C 208.809 285.731,208.406 285.938,208.288 285.938 C 208.085 285.938,208.048 270.426,208.168 235.318 L 208.203 225.225 211.084 222.396 C 230.230 203.596,258.954 194.518,288.770 197.843 M135.547 197.836 C 141.007 198.543,143.767 199.052,148.898 200.298 C 154.319 201.614,155.670 202.080,162.988 205.169 C 173.321 209.530,182.644 215.775,189.893 223.192 L 191.797 225.141 191.797 255.539 C 191.797 272.258,191.730 285.938,191.648 285.938 C 191.566 285.938,191.060 285.645,190.525 285.287 C 182.994 280.255,168.302 273.859,157.910 271.089 C 150.540 269.125,143.996 267.888,136.816 267.104 C 123.843 265.686,113.260 265.987,98.943 268.180 C 93.307 269.043,84.765 270.888,81.836 271.875 C 81.163 272.102,80.489 272.240,80.338 272.182 C 80.104 272.092,80.077 268.224,80.156 245.755 C 80.207 231.278,80.254 216.397,80.261 212.685 L 80.273 205.937 81.201 205.486 C 88.468 201.950,103.662 198.421,115.723 197.468 C 119.840 197.143,131.929 197.367,135.547 197.836 " stroke="none" fill="#90edb5" fill-rule="evenodd"></path><path id="path3" d="M0.857 0.366 C 1.230 0.778,0.882 1.078,0.293 0.852 C -0.054 0.719,-0.149 3.401,0.195 3.613 C 0.303 3.680,0.393 3.619,0.397 3.478 C 0.401 3.314,0.501 3.352,0.675 3.582 C 0.983 3.988,2.287 4.352,2.456 4.078 C 2.516 3.981,2.911 3.724,3.334 3.509 C 4.472 2.928,4.421 1.210,3.252 0.768 L 2.637 0.536 3.418 0.283 C 4.177 0.037,4.147 0.030,2.362 0.015 C 0.578 0.000,0.535 0.010,0.857 0.366 M118.457 92.603 C 109.442 92.910,104.448 93.503,90.625 95.909 C 85.930 96.726,83.485 98.830,83.105 102.382 C 82.943 103.888,82.809 181.521,82.963 184.619 C 83.083 187.045,82.981 186.967,85.059 186.217 C 86.326 185.759,86.991 185.564,90.723 184.556 C 91.475 184.353,93.276 183.920,94.727 183.595 C 96.177 183.269,97.738 182.904,98.196 182.784 L 99.029 182.565 99.011 146.825 C 99.001 127.168,99.066 111.022,99.155 110.944 C 99.381 110.748,100.939 110.449,104.688 109.881 C 117.160 107.990,131.966 108.302,145.165 110.732 C 151.440 111.888,160.136 114.477,165.723 116.853 C 171.621 119.362,173.112 120.056,174.602 120.987 C 174.982 121.224,175.908 121.752,176.660 122.160 C 177.965 122.868,180.583 124.519,183.105 126.226 C 184.408 127.107,187.911 129.831,190.377 131.881 L 191.985 133.217 191.982 158.649 C 191.980 172.637,191.982 188.316,191.986 193.491 L 191.992 202.901 195.166 205.725 C 196.912 207.279,198.643 208.867,199.013 209.255 C 199.941 210.228,199.911 210.241,202.694 207.657 C 204.059 206.389,205.747 204.886,206.445 204.317 C 208.213 202.877,208.148 203.017,207.963 201.042 C 207.874 200.093,207.847 197.954,207.904 196.289 C 207.961 194.624,208.016 179.783,208.026 163.309 L 208.045 133.356 208.954 132.484 C 213.814 127.823,225.513 120.444,232.227 117.806 C 233.473 117.316,234.723 116.802,236.621 115.997 C 238.214 115.321,241.452 114.173,243.164 113.676 C 243.862 113.473,245.356 113.036,246.484 112.703 C 251.161 111.326,255.180 110.540,263.086 109.456 C 266.903 108.932,269.031 108.788,274.680 108.668 C 283.233 108.488,289.963 109.013,300.135 110.655 C 301.014 110.797,300.948 108.094,301.014 147.018 L 301.074 182.610 302.148 182.823 C 304.253 183.241,311.466 185.157,313.849 185.931 C 316.684 186.853,316.911 186.875,317.067 186.252 C 317.131 185.996,317.192 166.942,317.201 143.910 L 317.219 102.035 316.727 100.922 C 315.349 97.808,313.271 96.470,308.471 95.609 C 291.154 92.502,277.628 91.750,264.551 93.165 C 260.236 93.633,255.901 94.176,255.273 94.329 C 254.897 94.421,254.150 94.551,253.613 94.620 C 251.241 94.921,243.826 96.565,240.723 97.478 C 238.852 98.028,232.525 100.155,231.445 100.597 C 230.962 100.795,229.544 101.356,228.294 101.844 C 225.393 102.975,220.199 105.474,217.101 107.228 C 215.774 107.979,214.638 108.594,214.576 108.594 C 214.322 108.594,210.231 111.346,206.934 113.734 C 203.440 116.264,202.482 117.005,200.887 118.408 C 199.846 119.323,199.901 119.328,198.623 118.206 C 193.970 114.120,184.773 108.011,179.297 105.370 C 178.491 104.981,177.700 104.581,177.539 104.481 C 177.254 104.303,176.092 103.768,172.266 102.054 C 170.514 101.268,165.507 99.356,163.645 98.761 C 161.969 98.226,159.841 97.589,158.545 97.235 C 157.820 97.037,156.589 96.698,155.811 96.482 C 154.588 96.143,151.301 95.415,150.098 95.217 C 149.883 95.181,148.477 94.932,146.973 94.662 C 141.160 93.620,136.462 93.076,130.762 92.785 C 124.587 92.470,123.031 92.447,118.457 92.603 M301.020 224.843 C 300.990 238.506,300.929 249.722,300.884 249.767 C 300.838 249.813,299.193 249.660,297.227 249.429 C 292.375 248.858,292.478 248.868,289.369 248.635 C 277.465 247.740,266.323 248.111,256.738 249.722 C 250.579 250.757,243.660 252.254,240.368 253.263 C 236.235 254.530,230.383 256.566,228.516 257.386 C 228.032 257.599,226.450 258.273,225.000 258.885 C 220.346 260.847,212.610 264.948,209.838 266.921 C 209.180 267.390,208.546 267.773,208.428 267.773 C 208.177 267.773,208.009 285.328,208.257 285.640 C 208.355 285.762,208.530 285.747,208.746 285.597 C 210.573 284.328,215.399 281.562,218.452 280.035 C 219.529 279.496,220.439 278.977,220.475 278.883 C 220.511 278.788,220.637 278.711,220.756 278.711 C 220.874 278.711,221.152 278.542,221.374 278.336 C 222.000 277.753,224.399 276.452,226.295 275.668 C 227.240 275.276,228.455 274.709,228.997 274.407 C 230.155 273.760,236.598 271.211,239.258 270.348 C 242.957 269.148,249.541 267.323,251.367 266.993 C 251.958 266.886,252.837 266.713,253.320 266.608 C 265.375 263.991,286.434 263.258,295.897 265.126 C 296.167 265.179,296.782 265.270,297.266 265.329 C 299.030 265.542,302.145 266.065,306.221 266.833 C 312.496 268.015,314.854 267.344,316.547 263.899 L 317.090 262.793 317.090 233.798 L 317.090 204.803 315.137 204.049 C 312.156 202.897,311.231 202.578,308.722 201.839 C 306.142 201.079,301.831 200.000,301.372 200.000 C 301.107 200.000,301.068 202.733,301.020 224.843 M94.491 201.063 C 91.437 201.847,85.775 203.674,83.789 204.516 L 82.910 204.889 82.916 233.841 L 82.921 262.793 83.357 263.680 C 84.165 265.321,85.996 266.851,87.914 267.488 C 88.975 267.841,89.058 267.832,94.141 266.815 C 98.088 266.025,103.798 265.125,106.055 264.937 C 106.646 264.888,107.832 264.762,108.691 264.658 C 117.588 263.575,134.881 264.200,143.750 265.925 C 149.260 266.996,155.208 268.475,159.375 269.811 C 162.589 270.841,168.221 273.058,169.845 273.932 C 170.501 274.285,171.732 274.852,172.580 275.191 C 174.230 275.852,176.040 276.826,176.554 277.328 C 176.727 277.498,177.963 278.198,179.300 278.884 C 180.637 279.570,182.831 280.746,184.176 281.498 C 185.521 282.250,187.368 283.280,188.281 283.786 C 189.194 284.292,190.281 284.938,190.697 285.221 C 191.113 285.505,191.530 285.689,191.625 285.630 C 191.720 285.571,191.797 281.614,191.797 276.779 L 191.797 268.035 190.869 267.437 C 181.044 261.107,171.178 256.704,158.203 252.860 C 153.904 251.586,150.588 250.852,144.922 249.920 C 138.543 248.870,138.418 248.854,134.863 248.633 C 133.037 248.519,131.329 248.378,131.067 248.321 C 127.889 247.623,108.155 248.627,101.975 249.800 C 101.397 249.910,100.496 250.000,99.973 250.000 L 99.023 250.000 99.025 247.510 C 99.030 240.046,98.918 209.348,98.870 205.127 L 98.815 200.195 98.284 200.211 C 97.993 200.219,96.286 200.603,94.491 201.063 " stroke="none" fill="#cbdad2" fill-rule="evenodd"></path><path id="path4" d="M70.313 107.366 C 68.001 107.775,63.856 111.255,63.869 112.774 C 63.870 112.892,64.143 112.513,64.477 111.932 C 65.951 109.361,68.589 107.703,71.637 107.432 C 73.236 107.290,73.263 107.281,72.070 107.280 C 71.372 107.280,70.581 107.319,70.313 107.366 M326.091 107.445 C 322.775 108.223,319.660 111.568,319.750 114.255 C 319.770 114.862,319.791 114.831,319.933 113.983 C 320.500 110.597,323.579 107.883,327.349 107.446 C 328.574 107.304,328.652 107.276,327.832 107.272 C 327.295 107.268,326.512 107.346,326.091 107.445 M74.461 107.801 C 78.880 109.214,79.938 111.216,80.093 118.457 L 80.205 123.730 80.191 118.457 L 80.176 113.184 79.656 112.075 C 78.731 110.101,76.601 108.207,74.684 107.654 C 73.407 107.285,73.223 107.406,74.461 107.801 M329.118 107.494 C 329.163 107.533,329.551 107.619,329.980 107.684 C 330.525 107.767,330.643 107.750,330.371 107.626 C 329.996 107.456,328.950 107.346,329.118 107.494 M331.895 108.377 C 335.906 110.465,336.380 111.767,336.527 121.094 L 336.639 128.223 336.679 121.755 C 336.721 114.895,336.632 113.883,335.833 112.137 C 334.941 110.189,332.992 108.395,331.250 107.920 C 330.981 107.847,331.272 108.053,331.895 108.377 M63.602 113.518 C 63.536 113.764,63.490 114.185,63.501 114.453 C 63.512 114.741,63.589 114.585,63.689 114.075 C 63.869 113.160,63.805 112.757,63.602 113.518 M63.373 127.637 C 63.373 134.619,63.398 137.447,63.428 133.921 C 63.458 130.396,63.457 124.683,63.428 121.226 C 63.398 117.769,63.373 120.654,63.373 127.637 M319.577 119.336 C 319.577 119.712,319.617 119.866,319.666 119.678 C 319.715 119.490,319.715 119.182,319.666 118.994 C 319.617 118.806,319.577 118.960,319.577 119.336 M319.763 129.297 C 319.740 130.103,319.676 130.981,319.621 131.250 L 319.520 131.738 319.729 131.261 C 319.843 130.999,319.907 130.120,319.871 129.308 L 319.805 127.832 319.763 129.297 M80.167 144.336 C 80.167 148.579,80.193 150.315,80.224 148.193 C 80.256 146.072,80.256 142.600,80.224 140.479 C 80.193 138.357,80.167 140.093,80.167 144.336 M319.577 137.500 C 319.577 137.876,319.617 138.030,319.666 137.842 C 319.715 137.654,319.715 137.346,319.666 137.158 C 319.617 136.970,319.577 137.124,319.577 137.500 M336.594 139.453 C 336.594 140.474,336.627 140.891,336.667 140.381 C 336.707 139.871,336.707 139.036,336.667 138.525 C 336.627 138.015,336.594 138.433,336.594 139.453 M319.809 144.629 C 319.809 146.885,319.838 147.781,319.872 146.620 C 319.907 145.460,319.907 143.614,319.872 142.519 C 319.837 141.423,319.809 142.373,319.809 144.629 M336.616 159.863 C 336.616 168.135,336.640 171.490,336.670 167.319 C 336.699 163.149,336.699 156.381,336.670 152.280 C 336.640 148.180,336.616 151.592,336.616 159.863 M63.362 149.805 C 63.362 151.685,63.391 152.454,63.427 151.514 C 63.462 150.574,63.462 149.036,63.427 148.096 C 63.391 147.156,63.362 147.925,63.362 149.805 M319.584 150.000 C 319.584 150.483,319.623 150.681,319.669 150.439 C 319.716 150.198,319.716 149.802,319.669 149.561 C 319.623 149.319,319.584 149.517,319.584 150.000 M319.584 154.102 C 319.584 154.585,319.623 154.783,319.669 154.541 C 319.716 154.299,319.716 153.904,319.669 153.662 C 319.623 153.420,319.584 153.618,319.584 154.102 M63.331 156.152 C 63.333 156.582,63.373 156.735,63.419 156.492 C 63.466 156.249,63.464 155.897,63.415 155.711 C 63.367 155.524,63.328 155.723,63.331 156.152 M80.162 160.156 C 80.162 162.681,80.190 163.713,80.224 162.451 C 80.258 161.189,80.258 159.124,80.224 157.861 C 80.190 156.599,80.162 157.632,80.162 160.156 M319.782 158.887 C 319.784 159.424,319.822 159.620,319.867 159.323 C 319.912 159.027,319.910 158.587,319.864 158.347 C 319.818 158.107,319.781 158.350,319.782 158.887 M63.366 163.184 C 63.366 165.869,63.393 166.995,63.427 165.685 C 63.461 164.376,63.461 162.178,63.427 160.802 C 63.394 159.427,63.366 160.498,63.366 163.184 M319.724 162.256 C 319.723 162.444,319.694 164.689,319.659 167.245 C 319.625 169.801,319.648 171.924,319.710 171.962 C 319.773 172.001,319.847 169.756,319.874 166.973 C 319.902 164.191,319.880 161.914,319.825 161.914 C 319.771 161.914,319.726 162.068,319.724 162.256 M80.125 178.455 C 80.099 183.632,80.144 187.905,80.225 187.952 C 80.305 187.998,81.060 187.764,81.901 187.432 C 82.743 187.099,83.347 186.799,83.244 186.765 C 83.141 186.730,82.551 186.926,81.933 187.199 C 81.316 187.472,80.691 187.695,80.544 187.695 C 80.323 187.695,80.268 186.096,80.225 178.369 L 80.172 169.043 80.125 178.455 M319.719 180.990 C 319.669 184.445,319.565 187.337,319.486 187.415 C 319.408 187.493,318.769 187.369,318.066 187.138 C 317.364 186.907,316.681 186.725,316.549 186.733 C 316.417 186.742,317.049 187.004,317.954 187.318 C 318.860 187.631,319.651 187.837,319.712 187.775 C 319.842 187.646,319.981 177.630,319.878 175.879 C 319.840 175.234,319.768 177.534,319.719 180.990 M63.370 185.938 C 63.370 190.288,63.396 192.068,63.428 189.893 C 63.459 187.717,63.459 184.158,63.428 181.982 C 63.396 179.807,63.370 181.587,63.370 185.938 M121.523 180.419 C 122.458 180.454,124.040 180.455,125.039 180.419 C 126.038 180.384,125.273 180.354,123.340 180.354 C 121.406 180.354,120.589 180.383,121.523 180.419 M270.101 180.349 C 270.056 180.390,268.789 180.526,267.285 180.651 C 263.737 180.945,258.548 181.571,256.445 181.958 C 251.984 182.779,246.963 183.918,247.590 183.967 C 247.715 183.976,248.770 183.758,249.934 183.481 C 251.098 183.204,252.490 182.901,253.027 182.808 C 253.564 182.714,254.971 182.455,256.152 182.231 C 262.389 181.053,271.132 180.396,279.297 180.493 C 282.788 180.535,285.117 180.512,284.473 180.442 C 283.219 180.307,270.237 180.223,270.101 180.349 M116.357 180.613 C 116.921 180.652,117.844 180.652,118.408 180.613 C 118.972 180.573,118.511 180.541,117.383 180.541 C 116.255 180.541,115.793 180.573,116.357 180.613 M128.278 180.613 C 128.846 180.653,129.725 180.652,130.231 180.612 C 130.738 180.572,130.273 180.540,129.199 180.540 C 128.125 180.541,127.710 180.573,128.278 180.613 M110.352 180.966 C 103.261 181.847,101.516 182.084,100.293 182.330 C 98.392 182.712,99.634 182.586,105.869 181.763 C 108.829 181.373,112.169 180.978,113.291 180.886 C 115.225 180.727,115.255 180.718,113.867 180.715 C 113.062 180.713,111.479 180.826,110.352 180.966 M131.982 180.805 C 132.332 180.849,132.903 180.849,133.252 180.805 C 133.601 180.762,133.315 180.727,132.617 180.727 C 131.919 180.727,131.633 180.762,131.982 180.805 M285.758 180.735 C 285.803 180.773,286.631 180.852,287.598 180.910 C 288.793 180.981,289.106 180.962,288.574 180.851 C 287.803 180.689,285.601 180.598,285.758 180.735 M134.424 180.999 C 134.719 181.044,135.203 181.044,135.498 180.999 C 135.793 180.955,135.552 180.918,134.961 180.918 C 134.370 180.918,134.128 180.955,134.424 180.999 M136.575 181.195 C 136.872 181.240,137.311 181.239,137.552 181.192 C 137.792 181.146,137.549 181.109,137.012 181.111 C 136.475 181.112,136.278 181.150,136.575 181.195 M289.990 181.193 C 290.232 181.239,290.627 181.239,290.869 181.193 C 291.111 181.146,290.913 181.108,290.430 181.108 C 289.946 181.108,289.749 181.146,289.990 181.193 M138.430 181.388 C 138.673 181.435,139.025 181.433,139.211 181.384 C 139.398 181.335,139.199 181.297,138.770 181.299 C 138.340 181.301,138.187 181.341,138.430 181.388 M294.531 181.750 C 298.142 182.264,298.150 182.265,298.014 182.128 C 297.882 181.996,292.442 181.245,291.809 181.271 C 291.534 181.282,292.759 181.498,294.531 181.750 M139.993 181.583 C 140.235 181.630,140.587 181.628,140.774 181.580 C 140.960 181.531,140.762 181.492,140.332 181.495 C 139.902 181.497,139.750 181.537,139.993 181.583 M142.578 181.940 C 144.476 182.273,145.203 182.258,143.555 181.919 C 142.856 181.776,142.021 181.664,141.699 181.671 C 141.377 181.677,141.772 181.798,142.578 181.940 M147.559 182.813 C 148.385 183.023,149.094 183.023,148.438 182.813 C 148.169 182.726,147.729 182.658,147.461 182.660 C 147.022 182.663,147.032 182.679,147.559 182.813 M336.609 188.086 C 336.609 191.147,336.636 192.400,336.669 190.869 C 336.702 189.338,336.702 186.833,336.669 185.303 C 336.636 183.772,336.609 185.024,336.609 188.086 M151.270 183.607 C 152.021 183.809,152.722 183.949,152.826 183.917 C 153.046 183.849,150.533 183.194,150.155 183.221 C 150.016 183.230,150.518 183.404,151.270 183.607 M153.711 184.277 C 154.087 184.422,154.526 184.541,154.688 184.541 C 154.849 184.541,154.673 184.422,154.297 184.277 C 153.921 184.133,153.481 184.014,153.320 184.014 C 153.159 184.014,153.335 184.133,153.711 184.277 M245.996 184.285 C 245.226 184.551,245.224 184.553,245.898 184.440 C 246.695 184.305,247.510 184.008,247.070 184.012 C 246.909 184.013,246.426 184.136,245.996 184.285 M244.238 184.766 C 243.992 184.871,243.956 184.933,244.141 184.933 C 244.302 184.933,244.609 184.858,244.824 184.766 C 245.070 184.660,245.107 184.598,244.922 184.598 C 244.761 184.598,244.453 184.673,244.238 184.766 M159.277 185.907 C 170.567 189.522,180.753 194.757,190.401 201.901 C 191.620 202.804,192.563 203.455,192.497 203.347 C 191.954 202.469,185.354 197.999,179.102 194.275 C 173.868 191.158,158.281 184.722,156.090 184.773 C 155.910 184.778,157.344 185.288,159.277 185.907 M241.309 185.638 C 240.234 185.995,239.443 186.295,239.551 186.304 C 239.658 186.313,240.669 186.022,241.797 185.658 C 242.925 185.293,243.716 184.993,243.555 184.991 C 243.394 184.990,242.383 185.280,241.309 185.638 M237.341 186.852 C 236.556 187.123,235.947 187.379,235.989 187.421 C 236.030 187.462,236.805 187.240,237.710 186.927 C 238.615 186.614,239.224 186.358,239.063 186.358 C 238.901 186.359,238.127 186.581,237.341 186.852 M233.301 188.365 C 231.462 189.080,226.846 191.149,224.792 192.178 C 221.649 193.755,215.808 197.156,213.770 198.598 C 211.193 200.420,208.008 202.836,208.008 202.968 C 208.008 203.049,208.865 202.443,209.912 201.622 C 215.425 197.297,223.552 192.669,231.445 189.361 C 234.942 187.895,234.892 187.918,234.668 187.913 C 234.561 187.911,233.945 188.115,233.301 188.365 M115.625 197.477 C 114.390 197.576,112.764 197.741,112.012 197.843 L 110.645 198.029 112.012 197.947 C 112.764 197.901,114.785 197.763,116.504 197.639 C 119.327 197.435,130.714 197.505,133.691 197.744 L 134.668 197.823 133.691 197.639 C 132.331 197.383,118.359 197.258,115.625 197.477 M269.238 197.466 C 268.486 197.538,269.233 197.555,270.898 197.504 C 272.563 197.454,273.962 197.379,274.007 197.339 C 274.130 197.229,270.797 197.318,269.238 197.466 M279.346 197.410 C 280.071 197.448,281.257 197.448,281.982 197.410 C 282.708 197.373,282.114 197.342,280.664 197.342 C 279.214 197.342,278.621 197.373,279.346 197.410 M284.127 197.602 C 284.473 197.645,285.088 197.646,285.494 197.603 C 285.899 197.561,285.615 197.526,284.863 197.525 C 284.111 197.524,283.780 197.559,284.127 197.602 M265.872 197.796 C 266.169 197.841,266.608 197.840,266.848 197.794 C 267.089 197.747,266.846 197.711,266.309 197.712 C 265.771 197.714,265.575 197.752,265.872 197.796 M286.670 197.794 C 286.912 197.841,287.307 197.841,287.549 197.794 C 287.791 197.748,287.593 197.709,287.109 197.709 C 286.626 197.709,286.428 197.748,286.670 197.794 M135.107 197.989 C 135.349 198.036,135.745 198.036,135.986 197.989 C 136.228 197.943,136.030 197.905,135.547 197.905 C 135.063 197.905,134.866 197.943,135.107 197.989 M264.014 197.989 C 264.255 198.036,264.651 198.036,264.893 197.989 C 265.134 197.943,264.937 197.905,264.453 197.905 C 263.970 197.905,263.772 197.943,264.014 197.989 M289.844 198.154 C 290.864 198.292,292.007 198.400,292.383 198.394 C 292.759 198.389,292.231 198.272,291.211 198.135 C 290.190 197.997,289.048 197.889,288.672 197.895 C 288.296 197.900,288.823 198.017,289.844 198.154 M108.008 198.275 C 107.417 198.375,105.310 198.727,103.326 199.058 C 101.342 199.389,99.364 199.778,98.931 199.924 C 98.088 200.208,98.329 200.187,100.391 199.796 C 100.981 199.684,101.904 199.510,102.441 199.409 C 102.979 199.308,104.604 199.040,106.055 198.815 C 111.115 198.027,110.750 198.096,109.863 198.094 C 109.434 198.094,108.599 198.175,108.008 198.275 M136.868 198.185 C 137.110 198.232,137.462 198.230,137.649 198.181 C 137.835 198.132,137.637 198.094,137.207 198.096 C 136.777 198.098,136.625 198.138,136.868 198.185 M262.354 198.182 C 262.542 198.231,262.849 198.231,263.037 198.182 C 263.225 198.132,263.071 198.092,262.695 198.092 C 262.319 198.092,262.166 198.132,262.354 198.182 M138.102 198.318 C 138.270 198.473,144.562 199.448,144.675 199.336 C 144.739 199.271,144.667 199.217,144.515 199.216 C 144.363 199.214,143.008 198.995,141.504 198.729 C 138.905 198.269,137.921 198.150,138.102 198.318 M258.203 198.823 C 257.290 199.014,256.719 199.176,256.934 199.183 C 257.148 199.190,258.115 199.035,259.082 198.838 C 260.049 198.642,260.620 198.480,260.352 198.478 C 260.083 198.476,259.116 198.631,258.203 198.823 M295.703 198.946 C 297.153 199.202,298.472 199.388,298.633 199.357 C 298.960 199.296,293.821 198.416,293.359 198.455 C 293.198 198.468,294.253 198.689,295.703 198.946 M146.368 199.827 C 147.217 200.032,147.948 200.164,147.993 200.119 C 148.088 200.024,145.453 199.405,145.079 199.434 C 144.939 199.445,145.519 199.622,146.368 199.827 M299.414 199.609 C 299.683 199.695,300.078 199.766,300.293 199.766 C 300.602 199.766,300.582 199.733,300.195 199.609 C 299.927 199.523,299.531 199.453,299.316 199.453 C 299.007 199.453,299.027 199.486,299.414 199.609 M63.351 201.465 C 63.350 202.432,63.383 202.852,63.424 202.398 C 63.465 201.945,63.465 201.154,63.425 200.641 C 63.385 200.127,63.351 200.498,63.351 201.465 M251.856 200.150 C 251.212 200.318,250.773 200.483,250.880 200.516 C 250.987 200.549,251.689 200.411,252.441 200.208 C 253.193 200.006,253.633 199.841,253.418 199.842 C 253.203 199.843,252.500 199.981,251.856 200.150 M150.781 200.905 C 153.373 201.588,155.960 202.467,158.594 203.559 C 160.151 204.205,162.173 205.039,163.086 205.413 C 169.038 207.852,177.688 212.850,181.543 216.077 C 182.402 216.797,184.176 218.267,185.485 219.344 C 186.794 220.421,188.705 222.210,189.732 223.320 L 191.600 225.336 191.650 243.479 L 191.701 261.621 191.749 243.381 L 191.797 225.141 189.893 223.192 C 183.908 217.069,175.693 211.172,167.913 207.416 C 161.290 204.219,151.581 200.519,150.033 200.604 C 149.854 200.613,150.190 200.749,150.781 200.905 M248.926 200.977 C 248.680 201.082,248.643 201.144,248.828 201.144 C 248.989 201.144,249.297 201.069,249.512 200.977 C 249.758 200.871,249.794 200.809,249.609 200.809 C 249.448 200.809,249.141 200.884,248.926 200.977 M247.559 201.367 C 247.312 201.473,247.276 201.535,247.461 201.535 C 247.622 201.535,247.930 201.460,248.145 201.367 C 248.391 201.261,248.427 201.199,248.242 201.199 C 248.081 201.199,247.773 201.275,247.559 201.367 M245.605 201.953 C 245.068 202.151,244.761 202.313,244.922 202.313 C 245.083 202.313,245.654 202.151,246.191 201.953 C 246.729 201.755,247.036 201.593,246.875 201.593 C 246.714 201.593,246.143 201.755,245.605 201.953 M243.652 202.578 C 240.031 203.833,234.301 206.210,234.822 206.241 C 234.907 206.246,235.314 206.078,235.725 205.868 C 236.540 205.453,238.913 204.521,242.282 203.294 C 243.462 202.864,244.465 202.475,244.512 202.428 C 244.645 202.295,244.290 202.357,243.652 202.578 M336.606 207.617 C 336.606 209.819,336.634 210.720,336.669 209.619 C 336.704 208.518,336.704 206.716,336.669 205.615 C 336.634 204.514,336.606 205.415,336.606 207.617 M81.592 205.306 L 80.273 205.920 80.315 208.087 L 80.356 210.254 80.419 208.140 L 80.482 206.025 81.892 205.369 C 82.667 205.008,83.213 204.708,83.105 204.702 C 82.998 204.696,82.317 204.968,81.592 205.306 M317.090 204.837 C 317.197 204.934,317.725 205.171,318.262 205.364 C 319.577 205.837,319.585 205.848,319.734 207.468 L 319.865 208.887 319.890 207.715 C 319.927 206.069,319.675 205.692,318.164 205.132 C 317.466 204.873,316.982 204.740,317.090 204.837 M204.297 206.152 C 203.822 206.636,203.478 207.031,203.532 207.031 C 203.586 207.031,204.018 206.636,204.492 206.152 C 204.967 205.669,205.311 205.273,205.257 205.273 C 205.203 205.273,204.771 205.669,204.297 206.152 M233.594 206.641 C 233.218 206.846,232.998 207.015,233.105 207.015 C 233.213 207.015,233.608 206.846,233.984 206.641 C 234.360 206.435,234.580 206.266,234.473 206.266 C 234.365 206.266,233.970 206.435,233.594 206.641 M230.371 208.171 C 223.701 211.683,216.846 216.738,211.084 222.396 L 208.203 225.225 208.244 227.212 L 208.286 229.199 208.349 227.221 L 208.412 225.243 211.286 222.431 C 216.940 216.901,224.283 211.504,230.469 208.334 C 232.812 207.133,232.993 207.028,232.699 207.036 C 232.600 207.038,231.553 207.549,230.371 208.171 M201.943 208.350 L 201.270 209.082 202.002 208.409 C 202.405 208.039,202.734 207.709,202.734 207.677 C 202.734 207.527,202.569 207.668,201.943 208.350 M319.577 209.961 C 319.577 210.337,319.617 210.491,319.666 210.303 C 319.715 210.115,319.715 209.807,319.666 209.619 C 319.617 209.431,319.577 209.585,319.577 209.961 M319.686 216.504 C 319.725 219.189,319.788 221.475,319.824 221.582 C 319.948 221.944,319.877 214.172,319.745 212.891 C 319.673 212.192,319.646 213.818,319.686 216.504 M63.375 233.887 C 63.375 245.166,63.399 249.752,63.428 244.077 C 63.456 238.402,63.456 229.174,63.428 223.569 C 63.399 217.964,63.375 222.607,63.375 233.887 M336.600 219.531 C 336.600 220.981,336.631 221.575,336.668 220.850 C 336.706 220.125,336.706 218.938,336.668 218.213 C 336.631 217.488,336.600 218.081,336.600 219.531 M80.127 222.949 C 80.130 223.379,80.170 223.532,80.216 223.289 C 80.263 223.046,80.261 222.694,80.212 222.507 C 80.163 222.321,80.125 222.520,80.127 222.949 M319.697 223.975 C 319.681 224.377,319.656 225.015,319.641 225.391 C 319.627 225.767,319.668 226.558,319.732 227.148 C 319.811 227.871,319.853 227.409,319.861 225.732 C 319.872 223.430,319.765 222.282,319.697 223.975 M336.584 225.879 C 336.585 226.523,336.622 226.764,336.665 226.413 C 336.708 226.061,336.708 225.534,336.663 225.241 C 336.618 224.947,336.583 225.234,336.584 225.879 M319.811 233.398 C 319.811 236.138,319.839 237.258,319.873 235.889 C 319.906 234.519,319.906 232.278,319.873 230.908 C 319.839 229.539,319.811 230.659,319.811 233.398 M336.616 242.285 C 336.616 249.912,336.640 253.061,336.670 249.282 C 336.699 245.503,336.699 239.263,336.670 235.415 C 336.640 231.567,336.616 234.658,336.616 242.285 M80.134 231.738 C 80.135 232.275,80.173 232.472,80.218 232.175 C 80.263 231.878,80.262 231.439,80.216 231.198 C 80.169 230.958,80.133 231.201,80.134 231.738 M208.287 238.379 C 208.287 240.850,208.315 241.833,208.349 240.565 C 208.383 239.297,208.383 237.275,208.349 236.073 C 208.315 234.871,208.287 235.908,208.287 238.379 M80.162 242.969 C 80.162 245.493,80.190 246.526,80.224 245.264 C 80.258 244.001,80.258 241.936,80.224 240.674 C 80.190 239.412,80.162 240.444,80.162 242.969 M319.774 257.243 C 319.748 265.255,319.675 271.862,319.611 271.925 C 319.548 271.989,319.130 271.911,318.684 271.753 C 316.554 270.999,308.871 269.121,308.051 269.154 C 307.866 269.162,309.165 269.502,310.938 269.911 C 315.230 270.900,317.186 271.416,318.487 271.903 C 319.139 272.147,319.638 272.237,319.746 272.129 C 319.851 272.024,319.903 265.959,319.873 257.313 L 319.822 242.676 319.774 257.243 M208.095 252.246 C 208.095 255.684,208.122 257.062,208.154 255.310 C 208.186 253.558,208.186 250.745,208.154 249.060 C 208.121 247.375,208.095 248.809,208.095 252.246 M80.124 262.848 C 80.074 272.874,80.047 272.620,81.114 272.112 C 81.512 271.922,81.501 271.910,80.957 271.940 L 80.371 271.973 80.271 262.793 L 80.170 253.613 80.124 262.848 M63.340 258.984 C 63.340 259.575,63.376 259.817,63.421 259.521 C 63.466 259.226,63.466 258.743,63.421 258.447 C 63.376 258.152,63.340 258.394,63.340 258.984 M63.348 263.184 C 63.349 264.043,63.383 264.370,63.425 263.911 C 63.466 263.451,63.465 262.748,63.423 262.348 C 63.381 261.948,63.347 262.324,63.348 263.184 M191.677 264.258 C 191.677 265.601,191.708 266.150,191.746 265.479 C 191.784 264.807,191.784 263.708,191.746 263.037 C 191.708 262.366,191.677 262.915,191.677 264.258 M208.084 265.625 C 208.084 267.075,208.115 267.668,208.153 266.943 C 208.190 266.218,208.190 265.032,208.153 264.307 C 208.115 263.582,208.084 264.175,208.084 265.625 M121.054 266.161 C 121.946 266.197,123.352 266.197,124.179 266.161 C 125.007 266.124,124.277 266.094,122.559 266.095 C 120.840 266.095,120.163 266.125,121.054 266.161 M276.611 266.161 C 277.444 266.197,278.806 266.197,279.639 266.161 C 280.471 266.124,279.790 266.094,278.125 266.094 C 276.460 266.094,275.779 266.124,276.611 266.161 M115.973 266.355 C 116.541 266.395,117.420 266.394,117.926 266.354 C 118.433 266.314,117.969 266.282,116.895 266.282 C 115.820 266.283,115.406 266.316,115.973 266.355 M127.495 266.354 C 127.955 266.395,128.658 266.395,129.058 266.353 C 129.458 266.311,129.082 266.277,128.223 266.278 C 127.363 266.279,127.036 266.313,127.495 266.354 M271.050 266.354 C 271.509 266.395,272.213 266.395,272.613 266.353 C 273.013 266.311,272.637 266.277,271.777 266.278 C 270.918 266.279,270.591 266.313,271.050 266.354 M283.844 266.355 C 284.357 266.395,285.148 266.395,285.602 266.354 C 286.055 266.313,285.635 266.280,284.668 266.280 C 283.701 266.281,283.330 266.314,283.844 266.355 M112.061 266.548 C 112.410 266.591,112.981 266.591,113.330 266.548 C 113.679 266.504,113.394 266.469,112.695 266.469 C 111.997 266.469,111.711 266.504,112.061 266.548 M130.908 266.546 C 131.204 266.591,131.687 266.591,131.982 266.546 C 132.278 266.501,132.036 266.465,131.445 266.465 C 130.854 266.465,130.613 266.501,130.908 266.546 M267.432 266.549 C 267.834 266.591,268.494 266.591,268.896 266.549 C 269.299 266.506,268.970 266.472,268.164 266.472 C 267.358 266.472,267.029 266.506,267.432 266.549 M287.456 266.550 C 287.916 266.591,288.619 266.590,289.019 266.548 C 289.419 266.506,289.043 266.472,288.184 266.473 C 287.324 266.474,286.997 266.508,287.456 266.550 M107.715 266.802 C 107.272 266.884,107.737 266.903,108.789 266.846 C 109.810 266.790,110.681 266.712,110.726 266.673 C 110.867 266.550,108.533 266.650,107.715 266.802 M133.450 266.742 C 133.747 266.787,134.186 266.785,134.427 266.739 C 134.667 266.693,134.424 266.656,133.887 266.657 C 133.350 266.659,133.153 266.697,133.450 266.742 M265.381 266.739 C 265.623 266.786,266.018 266.786,266.260 266.739 C 266.501 266.693,266.304 266.655,265.820 266.655 C 265.337 266.655,265.139 266.693,265.381 266.739 M290.572 266.743 C 290.919 266.786,291.534 266.786,291.939 266.744 C 292.344 266.702,292.061 266.667,291.309 266.666 C 290.557 266.665,290.225 266.699,290.572 266.743 M135.305 266.935 C 135.548 266.982,135.900 266.980,136.086 266.931 C 136.273 266.882,136.074 266.844,135.645 266.846 C 135.215 266.848,135.062 266.888,135.305 266.935 M263.625 266.935 C 263.868 266.982,264.220 266.980,264.407 266.931 C 264.593 266.882,264.395 266.844,263.965 266.846 C 263.535 266.848,263.382 266.888,263.625 266.935 M294.434 267.085 C 296.146 267.379,297.179 267.439,296.094 267.180 C 295.718 267.090,294.839 266.972,294.141 266.916 L 292.871 266.816 294.434 267.085 M105.908 267.127 C 106.096 267.176,106.404 267.176,106.592 267.127 C 106.780 267.078,106.626 267.038,106.250 267.038 C 105.874 267.038,105.720 267.078,105.908 267.127 M137.061 267.130 C 137.302 267.177,137.698 267.177,137.939 267.130 C 138.181 267.083,137.983 267.045,137.500 267.045 C 137.017 267.045,136.819 267.083,137.061 267.130 M262.063 267.130 C 262.306 267.177,262.657 267.175,262.844 267.126 C 263.031 267.077,262.832 267.039,262.402 267.041 C 261.973 267.044,261.820 267.084,262.063 267.130 M104.250 267.326 C 104.493 267.372,104.845 267.371,105.032 267.322 C 105.218 267.273,105.020 267.235,104.590 267.237 C 104.160 267.239,104.007 267.279,104.250 267.326 M138.721 267.322 C 138.909 267.371,139.216 267.371,139.404 267.322 C 139.592 267.273,139.438 267.233,139.063 267.233 C 138.687 267.233,138.533 267.273,138.721 267.322 M260.596 267.322 C 260.784 267.371,261.091 267.371,261.279 267.322 C 261.467 267.273,261.313 267.233,260.938 267.233 C 260.562 267.233,260.408 267.273,260.596 267.322 M102.783 267.517 C 102.971 267.567,103.279 267.567,103.467 267.517 C 103.655 267.468,103.501 267.428,103.125 267.428 C 102.749 267.428,102.595 267.468,102.783 267.517 M140.381 267.521 C 140.623 267.567,141.018 267.567,141.260 267.521 C 141.501 267.474,141.304 267.436,140.820 267.436 C 140.337 267.436,140.139 267.474,140.381 267.521 M297.852 267.588 C 298.335 267.674,298.994 267.740,299.316 267.735 C 299.749 267.727,299.672 267.684,299.023 267.568 C 298.540 267.482,297.881 267.416,297.559 267.422 C 297.126 267.429,297.203 267.473,297.852 267.588 M99.707 267.868 C 98.955 268.002,98.560 268.118,98.828 268.125 C 99.097 268.133,99.976 268.024,100.781 267.883 C 101.587 267.743,101.982 267.627,101.660 267.626 C 101.338 267.625,100.459 267.734,99.707 267.868 M142.969 267.864 C 144.401 268.175,145.033 268.224,144.416 267.974 C 144.192 267.884,143.489 267.760,142.854 267.699 L 141.699 267.588 142.969 267.864 M257.666 267.713 C 257.854 267.762,258.162 267.762,258.350 267.713 C 258.538 267.664,258.384 267.623,258.008 267.623 C 257.632 267.623,257.478 267.664,257.666 267.713 M301.855 268.169 C 304.370 268.633,305.136 268.622,302.832 268.154 C 301.865 267.957,300.811 267.799,300.488 267.802 C 300.166 267.805,300.781 267.970,301.855 268.169 M95.996 268.453 C 94.427 268.783,95.242 268.795,96.973 268.467 C 97.725 268.324,98.076 268.208,97.754 268.207 C 97.432 268.207,96.641 268.318,95.996 268.453 M249.121 269.241 C 248.047 269.495,247.043 269.708,246.891 269.715 C 246.739 269.721,246.665 269.777,246.726 269.838 C 246.819 269.931,251.034 269.091,251.660 268.855 C 252.288 268.618,250.791 268.845,249.121 269.241 M63.365 273.438 C 63.365 275.962,63.393 276.995,63.427 275.732 C 63.461 274.470,63.461 272.405,63.427 271.143 C 63.393 269.880,63.365 270.913,63.365 273.438 M90.918 269.431 C 87.620 270.138,83.161 271.236,82.617 271.476 L 82.129 271.691 82.617 271.583 C 82.886 271.523,84.512 271.133,86.230 270.716 C 87.949 270.299,90.322 269.763,91.504 269.524 C 92.686 269.286,93.689 269.058,93.734 269.018 C 93.918 268.854,92.947 268.996,90.918 269.431 M152.246 269.643 C 152.783 269.792,153.311 269.907,153.418 269.898 C 153.748 269.869,152.076 269.366,151.660 269.368 C 151.445 269.370,151.709 269.493,152.246 269.643 M244.727 270.304 C 243.308 270.778,243.703 270.788,245.313 270.320 C 246.011 270.116,246.406 269.949,246.191 269.948 C 245.977 269.947,245.317 270.107,244.727 270.304 M154.704 270.196 C 154.749 270.240,155.796 270.541,157.031 270.866 C 158.267 271.191,159.525 271.551,159.827 271.666 C 160.130 271.781,160.481 271.869,160.608 271.861 C 161.005 271.838,159.373 271.293,157.106 270.693 C 154.974 270.128,154.541 270.038,154.704 270.196 M242.676 270.898 C 242.430 271.004,242.393 271.066,242.578 271.066 C 242.739 271.066,243.047 270.991,243.262 270.898 C 243.508 270.793,243.544 270.731,243.359 270.731 C 243.198 270.731,242.891 270.806,242.676 270.898 M239.453 271.728 C 236.849 272.505,230.621 274.625,230.156 274.893 C 229.845 275.073,229.766 275.162,229.980 275.091 C 230.195 275.020,232.261 274.325,234.570 273.547 C 236.880 272.769,239.209 271.995,239.746 271.827 C 240.283 271.659,240.591 271.522,240.430 271.523 C 240.269 271.524,239.829 271.616,239.453 271.728 M162.305 272.408 C 162.466 272.469,164.249 273.079,166.266 273.763 C 170.889 275.331,174.742 276.912,179.102 279.028 C 182.949 280.895,183.342 280.942,179.785 279.110 C 177.211 277.783,172.582 275.797,169.238 274.585 C 166.423 273.563,162.454 272.264,162.207 272.282 C 162.100 272.290,162.144 272.346,162.305 272.408 M226.660 276.287 C 225.586 276.777,223.872 277.520,222.852 277.938 C 221.147 278.636,217.904 280.256,218.188 280.268 C 218.255 280.271,219.221 279.844,220.336 279.320 C 221.451 278.795,223.813 277.729,225.586 276.950 C 227.358 276.172,228.845 275.502,228.890 275.463 C 229.173 275.212,228.355 275.514,226.660 276.287 M208.092 280.469 C 208.092 282.993,208.120 284.026,208.154 282.764 C 208.188 281.501,208.188 279.436,208.154 278.174 C 208.120 276.912,208.092 277.944,208.092 280.469 M63.354 281.934 C 63.355 283.115,63.387 283.573,63.426 282.952 C 63.465 282.330,63.464 281.363,63.425 280.803 C 63.386 280.243,63.354 280.752,63.354 281.934 M216.748 280.872 C 216.130 281.191,215.625 281.495,215.625 281.549 C 215.625 281.602,216.152 281.380,216.797 281.055 C 217.441 280.729,217.969 280.420,217.969 280.368 C 217.969 280.238,218.005 280.223,216.748 280.872 M336.560 282.053 C 336.433 286.493,334.297 289.632,330.469 291.007 C 329.878 291.219,329.558 291.395,329.757 291.399 C 331.240 291.428,334.976 288.448,335.913 286.488 C 336.448 285.369,336.764 283.456,336.669 281.915 L 336.597 280.762 336.560 282.053 M211.957 283.567 C 211.282 283.982,210.667 284.391,210.590 284.476 C 210.387 284.698,212.417 283.560,212.940 283.159 C 213.672 282.596,213.253 282.770,211.957 283.567 M119.494 283.154 C 121.031 283.187,123.492 283.187,124.963 283.154 C 126.434 283.121,125.176 283.094,122.168 283.094 C 119.160 283.094,117.957 283.121,119.494 283.154 M273.299 283.153 C 274.029 283.191,275.171 283.190,275.838 283.152 C 276.505 283.114,275.908 283.083,274.512 283.084 C 273.115 283.084,272.570 283.115,273.299 283.153 M279.443 283.153 C 280.437 283.189,282.063 283.189,283.057 283.153 C 284.050 283.118,283.237 283.089,281.250 283.089 C 279.263 283.089,278.450 283.118,279.443 283.153 M113.814 283.344 C 114.161 283.387,114.776 283.388,115.181 283.346 C 115.586 283.303,115.303 283.268,114.551 283.267 C 113.799 283.266,113.467 283.301,113.814 283.344 M129.053 283.344 C 129.402 283.388,129.973 283.388,130.322 283.344 C 130.671 283.301,130.386 283.266,129.688 283.266 C 128.989 283.266,128.704 283.301,129.053 283.344 M269.683 283.346 C 270.142 283.388,270.845 283.387,271.245 283.345 C 271.645 283.303,271.270 283.269,270.410 283.270 C 269.551 283.271,269.224 283.305,269.683 283.346 M286.666 283.344 C 287.012 283.387,287.628 283.388,288.033 283.346 C 288.438 283.303,288.154 283.268,287.402 283.267 C 286.650 283.266,286.319 283.301,286.666 283.344 M111.184 283.539 C 111.481 283.583,111.921 283.582,112.161 283.536 C 112.401 283.490,112.158 283.453,111.621 283.454 C 111.084 283.456,110.887 283.494,111.184 283.539 M132.178 283.540 C 132.527 283.583,133.098 283.583,133.447 283.540 C 133.796 283.496,133.511 283.461,132.813 283.461 C 132.114 283.461,131.829 283.496,132.178 283.540 M265.820 283.600 C 265.413 283.689,265.769 283.708,266.699 283.646 C 267.559 283.588,268.298 283.509,268.343 283.470 C 268.487 283.344,266.527 283.445,265.820 283.600 M289.600 283.536 C 289.841 283.583,290.237 283.583,290.479 283.536 C 290.720 283.490,290.522 283.452,290.039 283.452 C 289.556 283.452,289.358 283.490,289.600 283.536 M107.227 283.809 C 106.421 283.898,105.234 284.059,104.590 284.165 L 103.418 284.359 104.785 284.247 C 107.636 284.012,110.605 283.647,109.668 283.646 C 109.131 283.646,108.032 283.719,107.227 283.809 M134.914 283.732 C 135.157 283.779,135.509 283.777,135.696 283.728 C 135.882 283.679,135.684 283.641,135.254 283.643 C 134.824 283.645,134.671 283.685,134.914 283.732 M291.555 283.732 C 291.798 283.779,292.150 283.777,292.336 283.728 C 292.523 283.679,292.324 283.641,291.895 283.643 C 291.465 283.645,291.312 283.685,291.555 283.732 M136.377 283.924 C 136.565 283.973,136.873 283.973,137.061 283.924 C 137.249 283.875,137.095 283.834,136.719 283.834 C 136.343 283.834,136.189 283.875,136.377 283.924 M263.818 283.927 C 264.060 283.973,264.456 283.973,264.697 283.927 C 264.939 283.880,264.741 283.842,264.258 283.842 C 263.774 283.842,263.577 283.880,263.818 283.927 M293.313 283.927 C 293.556 283.974,293.907 283.972,294.094 283.923 C 294.281 283.874,294.082 283.836,293.652 283.838 C 293.223 283.840,293.070 283.880,293.313 283.927 M139.844 284.484 C 141.187 284.736,142.505 284.938,142.773 284.933 C 143.042 284.928,142.119 284.715,140.723 284.460 C 139.326 284.205,138.008 284.003,137.793 284.011 C 137.578 284.019,138.501 284.232,139.844 284.484 M262.354 284.119 C 262.542 284.168,262.849 284.168,263.037 284.119 C 263.225 284.070,263.071 284.030,262.695 284.030 C 262.319 284.030,262.166 284.070,262.354 284.119 M294.775 284.119 C 294.963 284.168,295.271 284.168,295.459 284.119 C 295.647 284.070,295.493 284.030,295.117 284.030 C 294.741 284.030,294.587 284.070,294.775 284.119 M258.887 284.528 C 258.027 284.692,257.412 284.857,257.520 284.893 C 257.627 284.930,258.594 284.793,259.668 284.589 C 260.742 284.385,261.357 284.221,261.035 284.223 C 260.713 284.226,259.746 284.363,258.887 284.528 M296.143 284.314 C 296.331 284.363,296.638 284.363,296.826 284.314 C 297.014 284.265,296.860 284.225,296.484 284.225 C 296.108 284.225,295.955 284.265,296.143 284.314 M63.480 284.684 C 63.481 284.890,63.572 285.190,63.681 285.352 C 63.826 285.566,63.844 285.487,63.748 285.059 C 63.587 284.340,63.476 284.185,63.480 284.684 M297.299 284.473 C 297.353 284.527,298.356 284.699,299.529 284.856 C 300.701 285.012,302.393 285.280,303.288 285.452 C 304.184 285.623,305.012 285.732,305.128 285.693 C 305.365 285.614,302.455 285.067,299.609 284.656 C 297.561 284.359,297.153 284.327,297.299 284.473 M100.391 284.776 C 100.015 284.866,97.993 285.253,95.898 285.635 C 92.355 286.281,90.647 286.662,91.113 286.702 C 91.221 286.711,92.188 286.547,93.262 286.338 C 94.336 286.128,96.226 285.769,97.461 285.540 C 101.087 284.868,102.285 284.602,101.660 284.606 C 101.338 284.609,100.767 284.685,100.391 284.776 M209.518 285.066 C 209.117 285.338,208.789 285.603,208.789 285.654 C 208.789 285.706,209.141 285.515,209.570 285.231 C 210.253 284.779,210.483 284.570,210.299 284.570 C 210.270 284.570,209.919 284.793,209.518 285.066 M144.629 285.293 C 145.381 285.455,147.964 286.064,150.369 286.647 C 152.775 287.229,154.778 287.670,154.821 287.627 C 154.988 287.460,144.243 284.936,143.555 284.980 C 143.394 284.991,143.877 285.132,144.629 285.293 M256.299 285.096 C 256.487 285.145,256.794 285.145,256.982 285.096 C 257.170 285.046,257.017 285.006,256.641 285.006 C 256.265 285.006,256.111 285.046,256.299 285.096 M252.930 285.639 C 251.802 285.886,249.956 286.355,248.828 286.681 C 247.700 287.007,246.048 287.467,245.157 287.703 C 244.266 287.940,243.572 288.168,243.615 288.211 C 243.683 288.280,245.889 287.711,250.293 286.491 C 251.045 286.282,252.627 285.905,253.809 285.653 C 254.990 285.401,255.737 285.194,255.469 285.193 C 255.200 285.191,254.058 285.392,252.930 285.639 M191.102 285.634 C 191.553 285.995,191.797 286.022,191.797 285.710 C 191.797 285.584,191.741 285.537,191.674 285.605 C 191.606 285.673,191.364 285.639,191.136 285.529 C 190.734 285.336,190.733 285.339,191.102 285.634 M63.872 285.798 C 63.846 286.574,65.938 289.280,67.007 289.852 C 67.262 289.988,66.939 289.608,66.289 289.006 C 65.639 288.404,64.831 287.402,64.493 286.778 C 64.154 286.155,63.875 285.713,63.872 285.798 M307.324 286.251 C 308.765 286.663,311.963 287.321,312.058 287.226 C 312.103 287.181,311.628 287.041,311.002 286.915 C 310.376 286.789,309.189 286.518,308.366 286.312 C 306.642 285.881,305.870 285.836,307.324 286.251 M88.770 287.116 C 88.018 287.310,87.578 287.473,87.793 287.480 C 88.008 287.486,88.799 287.325,89.551 287.123 C 90.303 286.920,90.742 286.756,90.527 286.759 C 90.313 286.761,89.521 286.922,88.770 287.116 M155.371 287.864 C 155.586 287.958,156.069 288.091,156.445 288.159 C 156.915 288.244,157.006 288.230,156.738 288.112 C 156.523 288.018,156.040 287.886,155.664 287.817 C 155.195 287.732,155.103 287.747,155.371 287.864 M83.008 288.574 C 82.632 288.719,82.456 288.837,82.617 288.837 C 82.778 288.837,83.218 288.719,83.594 288.574 C 83.970 288.429,84.146 288.311,83.984 288.311 C 83.823 288.311,83.384 288.429,83.008 288.574 M242.480 288.477 C 242.234 288.582,242.198 288.644,242.383 288.644 C 242.544 288.644,242.852 288.569,243.066 288.477 C 243.313 288.371,243.349 288.309,243.164 288.309 C 243.003 288.309,242.695 288.384,242.480 288.477 M80.469 289.258 C 79.025 289.731,79.463 289.742,81.055 289.272 C 81.753 289.066,82.148 288.899,81.934 288.901 C 81.719 288.904,81.060 289.064,80.469 289.258 M159.375 289.030 C 159.536 289.129,159.888 289.269,160.156 289.341 C 160.496 289.432,160.555 289.417,160.352 289.291 C 160.190 289.191,159.839 289.051,159.570 288.979 C 159.231 288.888,159.171 288.904,159.375 289.030 M239.197 289.489 C 238.572 289.706,238.096 289.919,238.137 289.960 C 238.179 290.002,238.822 289.824,239.566 289.564 C 240.309 289.304,240.786 289.092,240.625 289.092 C 240.464 289.093,239.821 289.271,239.197 289.489 M319.531 289.355 C 319.907 289.500,320.347 289.619,320.508 289.619 C 320.669 289.619,320.493 289.500,320.117 289.355 C 319.741 289.211,319.302 289.092,319.141 289.092 C 318.979 289.092,319.155 289.211,319.531 289.355 M78.223 289.934 C 77.468 290.280,77.819 290.285,78.711 289.941 C 79.087 289.797,79.263 289.675,79.102 289.672 C 78.940 289.669,78.545 289.787,78.223 289.934 M67.578 290.141 C 67.578 290.307,69.583 291.209,69.922 291.195 C 70.083 291.189,69.899 291.067,69.513 290.925 C 69.127 290.783,68.534 290.523,68.195 290.348 C 67.856 290.172,67.578 290.079,67.578 290.141 M75.684 290.732 C 74.932 290.985,74.453 291.196,74.620 291.201 C 74.787 291.207,75.534 290.998,76.280 290.737 C 77.026 290.477,77.505 290.266,77.344 290.268 C 77.183 290.271,76.436 290.480,75.684 290.732 M235.994 290.628 C 232.763 291.929,230.665 292.839,230.736 292.910 C 230.784 292.959,231.425 292.735,232.160 292.414 C 232.895 292.092,234.199 291.550,235.059 291.210 C 235.918 290.870,236.658 290.555,236.702 290.510 C 236.835 290.379,236.458 290.442,235.994 290.628 M164.063 290.707 C 164.063 290.751,164.480 290.942,164.990 291.131 C 165.500 291.320,167.400 292.122,169.212 292.915 C 171.024 293.707,172.539 294.323,172.579 294.283 C 172.695 294.167,164.511 290.625,164.127 290.625 C 164.091 290.625,164.063 290.662,164.063 290.707 M324.805 290.991 C 324.966 291.087,325.405 291.221,325.781 291.287 C 326.242 291.369,326.338 291.354,326.074 291.241 C 325.470 290.982,324.458 290.783,324.805 290.991 M71.729 291.546 C 72.024 291.591,72.507 291.591,72.803 291.546 C 73.098 291.501,72.856 291.465,72.266 291.465 C 71.675 291.465,71.433 291.501,71.729 291.546 M327.197 291.549 C 327.600 291.591,328.259 291.591,328.662 291.549 C 329.065 291.506,328.735 291.472,327.930 291.472 C 327.124 291.472,326.794 291.506,327.197 291.549 M228.125 293.913 C 226.127 294.817,225.191 295.295,225.392 295.307 C 225.515 295.314,230.340 293.162,230.452 293.050 C 230.692 292.811,229.963 293.081,228.125 293.913 M175.586 295.829 C 176.929 296.539,179.609 298.003,181.543 299.084 C 186.090 301.627,187.251 302.249,187.012 302.016 C 186.446 301.465,173.727 294.524,173.303 294.535 C 173.216 294.538,174.243 295.120,175.586 295.829 M221.387 297.200 C 217.616 299.141,210.795 303.086,208.069 304.904 C 206.043 306.255,204.562 307.075,203.326 307.531 C 202.947 307.671,202.771 307.791,202.935 307.799 C 203.483 307.824,205.930 306.520,208.582 304.789 C 211.093 303.149,218.674 298.774,221.240 297.483 C 221.912 297.146,222.461 296.827,222.461 296.775 C 222.461 296.645,222.484 296.636,221.387 297.200 M187.305 302.214 C 187.305 302.268,187.634 302.512,188.037 302.757 C 188.440 303.002,189.769 303.853,190.990 304.649 C 193.316 306.164,195.978 307.525,196.973 307.709 C 197.297 307.769,197.123 307.655,196.582 307.452 C 195.020 306.868,193.358 305.974,190.984 304.440 C 188.100 302.576,187.305 302.095,187.305 302.214 M199.172 308.146 C 199.415 308.193,199.767 308.191,199.953 308.142 C 200.140 308.093,199.941 308.055,199.512 308.057 C 199.082 308.059,198.929 308.099,199.172 308.146 " stroke="none" fill="#b5fad2" fill-rule="evenodd"></path></g></svg>