<svg width="24" height="24" viewBox="0 0 24 24" fill="none" xmlns="http://www.w3.org/2000/svg">
<rect x="0.5" y="0.5" width="23" height="23" rx="11.5" stroke="white"/>
<path d="M12 18.2188L11.0312 17.3438C9.92708 16.3438 9.125 15.6042 8.625 15.125C8.125 14.6458 7.5625 14.0521 6.9375 13.3438C6.33333 12.6354 5.91667 12 5.6875 11.4375C5.45833 10.8542 5.34375 10.2604 5.34375 9.65625C5.34375 8.63542 5.6875 7.77083 6.375 7.0625C7.08333 6.35417 7.95833 6 9 6C10.2083 6 11.2083 6.46875 12 7.40625C12.7917 6.46875 13.7917 6 15 6C16.0417 6 16.9062 6.35417 17.5938 7.0625C18.3021 7.77083 18.6562 8.63542 18.6562 9.65625C18.6562 10.4688 18.3854 11.3125 17.8438 12.1875C17.3021 13.0625 16.7083 13.8229 16.0625 14.4688C15.4375 15.1146 14.4062 16.0833 12.9688 17.375L12 18.2188Z" fill="#61BB61"/>
</svg>
