<svg width="44" height="43" viewBox="0 0 44 43" fill="none" xmlns="http://www.w3.org/2000/svg">
<path d="M37.125 6.375L43.375 0.125V18.875H24.625L33.25 10.25C30.0833 7.08333 26.3333 5.5 22 5.5C17.5833 5.5 13.7917 7.08333 10.625 10.25C7.54167 13.3333 6 17.0833 6 21.5C6 25.9167 7.54167 29.7083 10.625 32.875C13.7917 35.9583 17.5833 37.5 22 37.5C25.0833 37.5 28.0833 36.4583 31 34.375C34 32.2917 36.0417 29.7917 37.125 26.875H42.625C41.4583 31.5417 38.9583 35.375 35.125 38.375C31.2917 41.375 26.9167 42.875 22 42.875C16.1667 42.875 11.1667 40.7917 7 36.625C2.83333 32.4583 0.75 27.4167 0.75 21.5C0.75 15.5833 2.83333 10.5417 7 6.375C11.1667 2.20833 16.1667 0.125 22 0.125C24.5 0.125 27.2083 0.75 30.125 2C33.125 3.16667 35.4583 4.625 37.125 6.375Z" fill="#61BB61"/>
</svg>
